<?xml version="1.0" standalone="no"?>
<!DOCTYPE svg PUBLIC "-//W3C//DTD SVG 20010904//EN"
 "http://www.w3.org/TR/2001/REC-SVG-20010904/DTD/svg10.dtd">
<svg version="1.0" xmlns="http://www.w3.org/2000/svg"
 width="1600.000000pt" height="1600.000000pt" viewBox="0 0 1600.000000 1600.000000"
 preserveAspectRatio="xMidYMid meet">
<metadata>
Created by potrace 1.11, written by Peter Selinger 2001-2013
</metadata>
<g transform="translate(0.000000,1600.000000) scale(0.100000,-0.100000)"
fill="#000000" stroke="none">
<path d="M8503 14180 c-17 -5 -18 -33 -18 -607 l0 -603 1685 0 1685 0 -1629
-1629 -1630 -1630 -35 28 c-115 90 -367 245 -571 352 -63 33 -253 119 -263
119 -7 0 -17 4 -23 9 -11 10 -195 79 -319 120 -151 48 -421 117 -530 134 -16
3 -58 10 -92 16 -34 7 -82 14 -105 16 -24 3 -65 7 -93 11 -208 27 -505 35
-760 20 -136 -7 -155 -9 -245 -20 -30 -4 -73 -9 -95 -12 -22 -3 -98 -16 -170
-29 -170 -32 -163 -31 -215 -45 -25 -7 -55 -14 -67 -16 -91 -17 -410 -124
-593 -199 -71 -29 -361 -171 -425 -207 -1033 -590 -1766 -1547 -2050 -2678
-15 -58 -29 -116 -31 -130 -3 -14 -7 -32 -9 -40 -11 -38 -50 -288 -61 -385
-26 -237 -26 -807 0 -940 2 -11 7 -47 10 -80 53 -481 252 -1078 512 -1532 493
-863 1244 -1514 2164 -1876 319 -125 736 -226 1080 -262 30 -3 75 -8 100 -11
25 -3 160 -7 300 -8 233 -3 331 1 497 19 32 3 78 8 103 11 25 2 56 7 70 10 14
2 45 7 69 11 195 26 688 160 836 228 17 7 55 23 85 35 169 66 436 202 615 313
658 408 1199 995 1551 1682 74 145 163 341 184 405 5 14 23 63 40 110 44 123
114 366 144 505 73 341 98 588 96 935 -1 188 -3 236 -15 370 -10 104 -12 118
-20 180 -4 30 -9 64 -10 75 -10 77 -51 280 -76 380 -17 66 -32 127 -34 135
-12 60 -130 396 -169 485 -8 17 -28 63 -45 103 -96 221 -306 581 -434 745
l-29 37 1625 1625 c894 894 1627 1625 1629 1625 3 0 5 -754 5 -1675 0 -922 3
-1678 6 -1681 5 -5 837 -8 1150 -5 l57 1 0 2725 c0 2173 -3 2725 -12 2726 -69
3 -5411 3 -5425 -1z m-2283 -4855 c80 -3 159 -7 175 -9 91 -11 128 -17 210
-31 510 -89 1029 -335 1426 -675 80 -68 268 -256 334 -333 239 -280 437 -626
561 -980 31 -91 94 -324 109 -402 18 -104 26 -158 44 -325 5 -41 9 -165 8
-275 0 -240 -19 -423 -62 -622 -3 -13 -7 -35 -11 -50 -49 -247 -184 -591 -332
-845 -151 -263 -386 -550 -601 -738 -35 -30 -69 -60 -75 -65 -74 -67 -265
-201 -401 -282 -92 -54 -313 -168 -325 -167 -3 0 -32 -12 -65 -26 -183 -81
-497 -167 -720 -196 -27 -3 -58 -8 -69 -10 -125 -24 -579 -24 -726 0 -14 3
-47 7 -75 10 -65 7 -285 52 -355 72 -30 9 -62 17 -70 19 -85 17 -366 130 -521
208 -919 467 -1538 1380 -1636 2412 -10 104 -10 477 0 580 9 99 42 298 63 384
9 36 17 72 19 80 13 67 69 242 120 371 41 103 164 357 196 401 10 15 19 30 19
33 0 4 8 19 19 34 10 15 42 63 71 107 135 204 368 463 565 626 395 327 843
541 1345 643 14 3 36 7 50 10 72 16 271 38 390 43 74 3 136 7 138 8 2 2 11 1
20 -1 9 -1 82 -5 162 -9z"/>
</g>
</svg>
